<svg width="40" height="33" viewBox="0 0 40 33" fill="none" xmlns="http://www.w3.org/2000/svg">
<path d="M24.4753 2.38403C22.2356 2.38403 20.4285 2.38403 19.0081 2.53979C17.5336 2.69954 16.2917 3.04566 15.3054 3.84575C14.4469 4.54465 14.0111 5.40331 13.7834 6.4124C13.5622 7.39353 13.5196 8.59298 13.5098 10.0334C13.508 10.2982 13.6358 10.5527 13.865 10.741C14.0943 10.9292 14.4061 11.0357 14.732 11.0372C15.0579 11.0386 15.3711 10.9347 15.6028 10.7485C15.8344 10.5622 15.9656 10.3088 15.9673 10.044C15.9771 8.58899 16.023 7.55727 16.2 6.77316C16.372 6.01968 16.6456 5.5817 17.0437 5.2582C17.4975 4.88945 18.1348 4.64982 19.3374 4.51803C20.5743 4.38357 22.2143 4.38091 24.5654 4.38091H26.2037C28.5564 4.38091 30.1964 4.38357 31.4333 4.51803C32.6359 4.64982 33.2716 4.89078 33.727 5.2582C34.1792 5.62696 34.4741 6.14348 34.6363 7.12195C34.8034 8.12571 34.805 9.45963 34.805 11.37V22.02C34.805 23.9303 34.8034 25.2629 34.6363 26.2693C34.4741 27.2465 34.1792 27.763 33.7254 28.1317C33.2716 28.5005 32.6359 28.7401 31.4333 28.8719C30.1964 29.0064 28.5564 29.009 26.2037 29.009H24.5654C22.2143 29.009 20.5743 29.0064 19.3358 28.8719C18.1348 28.7401 17.4975 28.4992 17.0437 28.1317C16.6456 27.8069 16.372 27.3703 16.2 26.6168C16.023 25.8327 15.9771 24.801 15.9673 23.3459C15.9664 23.2148 15.9338 23.0851 15.8713 22.9642C15.8087 22.8433 15.7175 22.7337 15.6028 22.6415C15.4881 22.5492 15.3521 22.4763 15.2027 22.4267C15.0533 22.3772 14.8934 22.3521 14.732 22.3528C14.5706 22.3535 14.411 22.38 14.2623 22.4308C14.1135 22.4816 13.9785 22.5558 13.865 22.649C13.7516 22.7422 13.6618 22.8527 13.6008 22.9741C13.5399 23.0955 13.5089 23.2254 13.5098 23.3565C13.5196 24.797 13.5622 25.9964 13.7834 26.9775C14.0128 27.9866 14.4469 28.8453 15.3071 29.5442C16.2917 30.3456 17.5352 30.6891 19.0097 30.8515C20.4285 31.0059 22.2356 31.0059 24.4753 31.0059H26.2938C28.5351 31.0059 30.3405 31.0059 31.761 30.8515C33.2355 30.6891 34.4774 30.3456 35.4637 29.5442C36.45 28.7428 36.8726 27.7337 37.0725 26.5356C37.2626 25.3814 37.2626 23.913 37.2626 22.0932V11.2968C37.2626 9.47693 37.2626 8.00856 37.0725 6.85437C36.8743 5.65625 36.45 4.64716 35.4637 3.84575C34.4774 3.04433 33.2355 2.70087 31.761 2.53979C30.3405 2.38403 28.5334 2.38403 26.2938 2.38403H24.4753Z" fill="black"/>
<path d="M24.5653 15.6965C24.8912 15.6965 25.2038 15.8017 25.4342 15.9889C25.6646 16.1762 25.7941 16.4301 25.7941 16.6949C25.7941 16.9597 25.6646 17.2137 25.4342 17.4009C25.2038 17.5882 24.8912 17.6934 24.5653 17.6934H6.58772L9.80052 19.9299C10.0482 20.1022 10.2015 20.3474 10.2267 20.6115C10.2519 20.8756 10.1469 21.1371 9.93487 21.3383C9.72282 21.5396 9.42107 21.6642 9.096 21.6846C8.77093 21.7051 8.44917 21.6198 8.20149 21.4475L2.46727 17.4538C2.33238 17.36 2.22408 17.2437 2.14982 17.1127C2.07556 16.9817 2.03711 16.8392 2.03711 16.6949C2.03711 16.5507 2.07556 16.4082 2.14982 16.2772C2.22408 16.1462 2.33238 16.0299 2.46727 15.9361L8.20149 11.9424C8.32413 11.8571 8.46624 11.7922 8.61972 11.7515C8.77321 11.7108 8.93505 11.6951 9.096 11.7053C9.25696 11.7154 9.41389 11.7512 9.55782 11.8106C9.70175 11.87 9.82987 11.9519 9.93487 12.0515C10.0399 12.1512 10.1197 12.2667 10.1697 12.3914C10.2198 12.5161 10.2392 12.6476 10.2267 12.7784C10.2142 12.9092 10.1702 13.0367 10.097 13.1536C10.0239 13.2706 9.92316 13.3747 9.80052 13.46L6.58936 15.6965H24.5653Z" fill="black"/>
</svg>
