<svg width="30" height="30" viewBox="0 0 30 30" fill="none" xmlns="http://www.w3.org/2000/svg">
<path d="M15 12.1429V20.7143M10.7143 16.4286H19.2857M13.5829 5.81L6.44 9.89143C6.00249 10.1413 5.63885 10.5025 5.38596 10.9383C5.13306 11.3741 4.99991 11.869 5 12.3729V22.1429C5 22.9006 5.30102 23.6273 5.83684 24.1632C6.37266 24.699 7.09938 25 7.85714 25H22.1429C22.9006 25 23.6273 24.699 24.1632 24.1632C24.699 23.6273 25 22.9006 25 22.1429V12.3714C24.9998 11.8678 24.8666 11.3732 24.6137 10.9377C24.3608 10.5022 23.9973 10.1412 23.56 9.89143L16.4171 5.81C15.9855 5.56345 15.4971 5.43378 15 5.43378C14.5029 5.43378 14.0145 5.56345 13.5829 5.81Z" stroke="black" stroke-width="2" stroke-linecap="round" stroke-linejoin="round"/>
</svg>
