<svg width="23" height="23" viewBox="0 0 23 23" fill="none" xmlns="http://www.w3.org/2000/svg">
<path d="M11.8335 8.63101V17.3925M7.54778 13.0117H16.1192M10.4164 2.15776L3.2735 6.32967C2.83599 6.58512 2.47235 6.95429 2.21945 7.39974C1.96656 7.8452 1.83341 8.35109 1.8335 8.86611V18.8527C1.8335 19.6273 2.13452 20.3701 2.67033 20.9178C3.20615 21.4655 3.93288 21.7732 4.69064 21.7732H18.9764C19.7341 21.7732 20.4608 21.4655 20.9967 20.9178C21.5325 20.3701 21.8335 19.6273 21.8335 18.8527V8.86465C21.8333 8.34987 21.7001 7.84429 21.4472 7.39911C21.1943 6.95394 20.8308 6.585 20.3935 6.32967L13.2506 2.15776C12.819 1.90575 12.3306 1.77319 11.8335 1.77319C11.3364 1.77319 10.848 1.90575 10.4164 2.15776Z" stroke="white" stroke-width="2" stroke-linecap="round" stroke-linejoin="round"/>
</svg>
