<svg width="40" height="33" viewBox="0 0 40 33" fill="none" xmlns="http://www.w3.org/2000/svg">
<path d="M24.5656 5.495C25.0844 5.495 25.576 5.58951 26.0402 5.77855C26.5044 5.96759 26.8866 6.22807 27.187 6.56L34.5596 14.5475C34.9965 15.0134 35.2149 15.5459 35.2149 16.145C35.2149 16.7441 34.9965 17.2766 34.5596 17.7425L27.187 25.73C26.8866 26.0628 26.5044 26.3237 26.0402 26.5128C25.576 26.7018 25.0844 26.7959 24.5656 26.795H21.2889C20.8247 26.795 20.4359 26.6672 20.1224 26.4116C19.809 26.156 19.6517 25.84 19.6506 25.4637C19.6495 25.0874 19.8068 24.7715 20.1224 24.5159C20.4381 24.2603 20.8269 24.1325 21.2889 24.1325H24.5656L31.9382 16.145L24.5656 8.1575H6.54379V13.4825C6.54379 13.8597 6.38651 14.1761 6.07195 14.4317C5.75739 14.6873 5.36855 14.8146 4.90544 14.8137C4.44234 14.8129 4.0535 14.6851 3.73894 14.4303C3.42438 14.1756 3.2671 13.8597 3.2671 13.4825V8.1575C3.2671 7.42531 3.58821 6.79873 4.23045 6.27777C4.87268 5.75681 5.64379 5.49588 6.54379 5.495H24.5656ZM9.82049 28.1262C9.35629 28.1262 8.96746 27.9984 8.65399 27.7428C8.34052 27.4872 8.18324 27.1713 8.18214 26.795V24.1325H4.90544C4.44125 24.1325 4.05241 24.0047 3.73894 23.7491C3.42547 23.4935 3.26819 23.1775 3.2671 22.8012C3.266 22.4249 3.42329 22.109 3.73894 21.8534C4.0546 21.5978 4.44343 21.47 4.90544 21.47H8.18214V18.8075C8.18214 18.4303 8.33943 18.1144 8.65399 17.8596C8.96855 17.6049 9.35739 17.4771 9.82049 17.4762C10.2836 17.4754 10.673 17.6032 10.9886 17.8596C11.3043 18.1161 11.461 18.4321 11.4588 18.8075V21.47H14.7355C15.1997 21.47 15.5891 21.5978 15.9037 21.8534C16.2182 22.109 16.375 22.4249 16.3739 22.8012C16.3728 23.1775 16.2155 23.4939 15.902 23.7504C15.5886 24.0069 15.1997 24.1343 14.7355 24.1325H11.4588V26.795C11.4588 27.1722 11.3016 27.4886 10.987 27.7442C10.6724 27.9998 10.2836 28.1271 9.82049 28.1262Z" fill="black"/>
</svg>
