<svg width="30" height="30" viewBox="0 0 30 30" fill="none" xmlns="http://www.w3.org/2000/svg">
<path d="M28.125 16.875V15H22.5V24.375H24.375V20.625H27.1875V18.75H24.375V16.875H28.125ZM17.8125 24.375H14.0625V15H17.8125C18.5582 15.0007 19.2731 15.2973 19.8004 15.8246C20.3277 16.3519 20.6243 17.0668 20.625 17.8125V21.5625C20.6243 22.3082 20.3277 23.0231 19.8004 23.5504C19.2731 24.0777 18.5582 24.3743 17.8125 24.375ZM15.9375 22.5H17.8125C18.0611 22.5 18.2996 22.4012 18.4754 22.2254C18.6512 22.0496 18.75 21.8111 18.75 21.5625V17.8125C18.75 17.5639 18.6512 17.3254 18.4754 17.1496C18.2996 16.9738 18.0611 16.875 17.8125 16.875H15.9375V22.5ZM10.3125 15H5.625V24.375H7.5V21.5625H10.3125C10.8096 21.5618 11.286 21.364 11.6375 21.0125C11.989 20.661 12.1868 20.1846 12.1875 19.6875V16.875C12.1875 16.3777 11.99 15.9008 11.6383 15.5492C11.2867 15.1975 10.8098 15 10.3125 15ZM7.5 19.6875V16.875H10.3125L10.3134 19.6875H7.5Z" fill="white"/>
<path d="M20.625 13.1249V9.37494C20.6283 9.25173 20.6049 9.12927 20.5563 9.01598C20.5078 8.90269 20.4353 8.80127 20.3438 8.71869L13.7812 2.15619C13.6991 2.06419 13.5977 1.99133 13.4843 1.94273C13.371 1.89414 13.2483 1.871 13.125 1.87494H3.75C3.25318 1.87643 2.77712 2.07445 2.42581 2.42576C2.0745 2.77707 1.87648 3.25312 1.875 3.74994V26.2499C1.875 26.7472 2.07254 27.2241 2.42417 27.5758C2.77581 27.9274 3.25272 28.1249 3.75 28.1249H18.75V26.2499H3.75V3.74994H11.25V9.37494C11.2515 9.87177 11.4495 10.3478 11.8008 10.6991C12.1521 11.0504 12.6282 11.2485 13.125 11.2499H18.75V13.1249H20.625ZM13.125 9.37494V4.12494L18.375 9.37494H13.125Z" fill="white"/>
</svg>
