<svg width="70" height="70" viewBox="0 0 70 70" fill="none" xmlns="http://www.w3.org/2000/svg">
<circle cx="35" cy="35" r="35" fill="white"/>
<circle cx="35" cy="35" r="34.5" stroke="black" stroke-opacity="0.3"/>
<path d="M34.9997 15.75C37.2866 15.7493 39.5134 16.4817 41.3535 17.8396C43.1935 19.1976 44.5497 21.1096 45.2232 23.2951C45.8966 25.4805 45.8518 27.8243 45.0953 29.9824C44.3387 32.1405 42.9103 33.9992 41.0197 35.2858C44.3013 36.4894 47.1475 38.6476 49.192 41.4826C51.2366 44.3176 52.3859 47.6996 52.4919 51.1933C52.5019 51.3873 52.4729 51.5812 52.4069 51.7638C52.3409 51.9464 52.239 52.114 52.1073 52.2567C51.9757 52.3994 51.8168 52.5144 51.6401 52.5949C51.4634 52.6754 51.2724 52.7198 51.0783 52.7255C50.8842 52.7312 50.6909 52.6981 50.5098 52.6281C50.3287 52.5581 50.1634 52.4526 50.0235 52.3179C49.8837 52.1831 49.7722 52.0218 49.6956 51.8434C49.6189 51.665 49.5787 51.4731 49.5772 51.2789C49.4614 47.4901 47.8749 43.8952 45.1539 41.2561C42.433 38.617 38.7913 37.141 35.0007 37.141C31.2101 37.141 27.5684 38.617 24.8474 41.2561C22.1264 43.8952 20.54 47.4901 20.4242 51.2789C20.4126 51.6657 20.2478 52.032 19.9661 52.2973C19.6844 52.5626 19.3089 52.7051 18.9221 52.6935C18.5353 52.6819 18.169 52.5171 17.9037 52.2354C17.6384 51.9537 17.4959 51.5782 17.5075 51.1914C17.6139 47.698 18.7634 44.3164 20.8079 41.4818C22.8524 38.6472 25.6985 36.4893 28.9797 35.2858C27.0891 33.9992 25.6607 32.1405 24.9042 29.9824C24.1476 27.8243 24.1028 25.4805 24.7762 23.2951C25.4497 21.1096 26.806 19.1976 28.646 17.8396C30.486 16.4817 32.7129 15.7493 34.9997 15.75ZM27.2219 26.4444C27.2219 28.5072 28.0414 30.4855 29.5 31.9442C30.9586 33.4028 32.9369 34.2222 34.9997 34.2222C37.0625 34.2222 39.0408 33.4028 40.4994 31.9442C41.9581 30.4855 42.7775 28.5072 42.7775 26.4444C42.7775 24.3817 41.9581 22.4033 40.4994 20.9447C39.0408 19.4861 37.0625 18.6667 34.9997 18.6667C32.9369 18.6667 30.9586 19.4861 29.5 20.9447C28.0414 22.4033 27.2219 24.3817 27.2219 26.4444Z" fill="black"/>
</svg>
