<svg width="40" height="40" viewBox="0 0 40 40" fill="none" xmlns="http://www.w3.org/2000/svg">
<path d="M35.8842 34.1156L28.0608 26.2937C30.3283 23.5714 31.4591 20.0797 31.2177 16.5449C30.9764 13.0101 29.3816 9.70445 26.7651 7.31557C24.1486 4.92669 20.7118 3.63851 17.1697 3.71901C13.6276 3.79951 10.2529 5.24249 7.74765 7.74777C5.24237 10.2531 3.79939 13.6278 3.71889 17.1698C3.63839 20.7119 4.92657 24.1487 7.31545 26.7652C9.70433 29.3817 13.01 30.9765 16.5448 31.2179C20.0795 31.4592 23.5713 30.3285 26.2936 28.0609L34.1155 35.8844C34.2316 36.0005 34.3695 36.0926 34.5212 36.1555C34.673 36.2183 34.8356 36.2507 34.9999 36.2507C35.1641 36.2507 35.3267 36.2183 35.4785 36.1555C35.6302 36.0926 35.7681 36.0005 35.8842 35.8844C36.0004 35.7682 36.0925 35.6304 36.1554 35.4786C36.2182 35.3269 36.2506 35.1642 36.2506 35C36.2506 34.8357 36.2182 34.6731 36.1554 34.5214C36.0925 34.3696 36.0004 34.2318 35.8842 34.1156ZM6.24987 17.5C6.24987 15.275 6.90967 13.0999 8.14583 11.2498C9.382 9.39977 11.139 7.95783 13.1947 7.10635C15.2503 6.25486 17.5123 6.03207 19.6946 6.46616C21.8769 6.90024 23.8815 7.9717 25.4548 9.54504C27.0282 11.1184 28.0996 13.1229 28.5337 15.3052C28.9678 17.4875 28.745 19.7495 27.8935 21.8052C27.042 23.8608 25.6001 25.6179 23.75 26.854C21.9 28.0902 19.7249 28.75 17.4999 28.75C14.5172 28.7467 11.6576 27.5604 9.54857 25.4513C7.4395 23.3422 6.25318 20.4827 6.24987 17.5Z" fill="black"/>
</svg>
